<svg width="200" height="200" viewBox="0 0 200 200" fill="none" xmlns="http://www.w3.org/2000/svg">
<circle cx="100" cy="100" r="100" fill="#2A292D"/>
<path d="M11.2693 104.212L25.1653 95.212V100L15.6253 105.976V106.12L25.1653 112.096V116.884L11.2693 107.884V104.212ZM33.9593 87.088C33.9593 81.904 34.7273 77.296 36.2633 73.264C37.7993 69.168 39.9113 65.712 42.5993 62.896C45.2873 60.08 48.4553 57.936 52.1033 56.464C55.7513 54.992 59.6553 54.256 63.8153 54.256C67.8473 54.256 71.3993 55.088 74.4713 56.752C77.6073 58.352 80.2313 60.176 82.3433 62.224L74.5673 70.96C73.0953 69.616 71.4953 68.528 69.7673 67.696C68.0393 66.864 66.0553 66.448 63.8153 66.448C61.5753 66.448 59.5273 66.928 57.6713 67.888C55.8153 68.784 54.1833 70.096 52.7753 71.824C51.4313 73.552 50.3753 75.664 49.6073 78.16C48.8393 80.656 48.4553 83.472 48.4553 86.608C48.4553 93.072 49.9273 98.096 52.8713 101.68C55.8153 105.2 59.6553 106.96 64.3913 106.96C66.6313 106.96 68.6473 106.448 70.4393 105.424C72.2953 104.4 73.9913 103.056 75.5273 101.392L83.3033 109.936C78.0553 116.08 71.4633 119.152 63.5273 119.152C59.4953 119.152 55.6873 118.48 52.1033 117.136C48.5193 115.728 45.3833 113.68 42.6953 110.992C40.0073 108.304 37.8633 104.976 36.2633 101.008C34.7273 96.976 33.9593 92.336 33.9593 87.088Z" fill="#F0EDF9"/>
<path d="M88.544 81.408H102.944L104.96 114.72C105.024 117.408 105.088 120.064 105.152 122.688C105.216 125.312 105.28 127.968 105.344 130.656H105.632C106.144 127.968 106.688 125.312 107.264 122.688C107.904 120.064 108.48 117.408 108.992 114.72L113.312 97.344H121.856L125.984 114.72C126.496 117.28 127.04 119.904 127.616 122.592C128.192 125.28 128.736 127.968 129.248 130.656H129.632C129.76 127.968 129.824 125.312 129.824 122.688C129.888 120 129.984 117.344 130.112 114.72L131.936 81.408H145.376L137.6 144H122.816L118.88 124.32C118.496 122.336 118.144 120.32 117.824 118.272C117.504 116.16 117.28 114.176 117.152 112.32H116.864C116.672 114.176 116.416 116.16 116.096 118.272C115.84 120.32 115.52 122.336 115.136 124.32L111.392 144H96.896L88.544 81.408ZM152.814 149.76H148.386L160.23 118.44H164.658L152.814 149.76ZM184.732 133.884L170.836 142.884V138.096L180.376 132.12V131.976L170.836 126V121.212L184.732 130.212V133.884Z" fill="#F0EDF9"/>
</svg>
